<svg width="32" height="32" viewBox="0 0 32 32" fill="none" xmlns="http://www.w3.org/2000/svg">
<path d="M29.1659 1.21094H2.84344C1.94183 1.21094 1.21094 1.94183 1.21094 2.84344V29.1659C1.21094 30.0675 1.94183 30.7984 2.84344 30.7984H29.1659C30.0675 30.7984 30.7984 30.0675 30.7984 29.1659V2.84344C30.7984 1.94183 30.0675 1.21094 29.1659 1.21094Z" fill="#1877F2"/>
<path d="M21.6213 30.7898V19.3323H25.4663L26.0413 14.8673H21.6213V12.0173C21.6213 10.7248 21.9813 9.84229 23.8338 9.84229H26.1988V5.84229C25.0535 5.72315 23.9026 5.6664 22.7513 5.67229C19.3463 5.67229 17.0013 7.74729 17.0013 11.5748V14.8673H13.1562V19.3323H17.0013V30.7898H21.6213Z" fill="white"/>
</svg>
