<svg width="32" height="32" viewBox="0 0 32 32" fill="none" xmlns="http://www.w3.org/2000/svg">
<path d="M19.4375 12.3V17.3813C19.4375 17.5125 19.3375 17.6125 19.2063 17.6125H18.3938C18.3125 17.6125 18.2438 17.5688 18.2063 17.5188L15.875 14.375V17.3875C15.875 17.5188 15.775 17.6188 15.6438 17.6188H14.8313C14.7 17.6188 14.6 17.5188 14.6 17.3875V12.3063C14.6 12.175 14.7 12.075 14.8313 12.075H15.6375C15.7063 12.075 15.7875 12.1125 15.825 12.175L18.1563 15.3188V12.3063C18.1563 12.175 18.2563 12.075 18.3875 12.075H19.2C19.3313 12.0688 19.4375 12.175 19.4375 12.2938V12.3ZM13.5813 12.0688H12.7688C12.6375 12.0688 12.5375 12.1688 12.5375 12.3V17.3813C12.5375 17.5125 12.6375 17.6125 12.7688 17.6125H13.5813C13.7125 17.6125 13.8125 17.5125 13.8125 17.3813V12.3C13.8125 12.1813 13.7125 12.0688 13.5813 12.0688ZM11.6188 16.325H9.39376V12.3C9.39376 12.1688 9.29376 12.0688 9.16251 12.0688H8.35001C8.21876 12.0688 8.11876 12.1688 8.11876 12.3V17.3813C8.11876 17.4438 8.13751 17.4938 8.18126 17.5375C8.22501 17.575 8.27501 17.6 8.33751 17.6H11.6C11.7313 17.6 11.8313 17.5 11.8313 17.3688V16.5563C11.8313 16.4375 11.7313 16.325 11.6125 16.325H11.6188ZM23.725 12.0688H20.4563C20.3375 12.0688 20.225 12.1688 20.225 12.3V17.3813C20.225 17.5 20.325 17.6125 20.4563 17.6125H23.7188C23.85 17.6125 23.95 17.5125 23.95 17.3813V16.5625C23.95 16.4313 23.85 16.3313 23.7188 16.3313H21.5V15.4813H23.7188C23.85 15.4813 23.95 15.3813 23.95 15.25V14.4313C23.95 14.3 23.85 14.2 23.7188 14.2H21.5V13.3438H23.7188C23.85 13.3438 23.95 13.2438 23.95 13.1125V12.3C23.9438 12.1813 23.8438 12.0688 23.7188 12.0688H23.725ZM32 5.83751V26.2125C31.9938 29.4125 29.3688 32.0063 26.1625 32H5.78751C2.58751 31.9938 -0.00623873 29.3625 1.12715e-05 26.1625V5.78751C0.00626127 2.58751 2.63751 -0.00623873 5.83751 1.12715e-05H26.2125C29.4125 0.00626127 32.0063 2.63126 32 5.83751ZM27.6 14.5938C27.6 9.38126 22.3688 5.13751 15.95 5.13751C9.53126 5.13751 4.30001 9.38126 4.30001 14.5938C4.30001 19.2625 8.44376 23.1813 14.0438 23.925C15.4063 24.2188 15.25 24.7188 14.9438 26.5563C14.8938 26.85 14.7063 27.7063 15.95 27.1875C17.1938 26.6688 22.6563 23.2375 25.1063 20.425C26.7938 18.5688 27.6 16.6875 27.6 14.6063V14.5938Z" fill="#2B2B2B"/>
</svg>
